<svg width="24" height="24" viewBox="0 0 24 24" fill="inherit" xmlns="http://www.w3.org/2000/svg">
<path d="M12 12.5H12.0006C12.8147 12.4991 13.5953 12.1752 14.171 11.5995C14.7467 11.0238 15.0705 10.2433 15.0714 9.42914V9.42857C15.0714 8.8211 14.8913 8.22727 14.5538 7.72218C14.2163 7.21708 13.7366 6.82341 13.1754 6.59094C12.6142 6.35847 11.9966 6.29765 11.4008 6.41616C10.805 6.53467 10.2577 6.82719 9.82817 7.25674C9.39863 7.68629 9.1061 8.23357 8.98759 8.82936C8.86908 9.42516 8.9299 10.0427 9.16237 10.604C9.39484 11.1652 9.78852 11.6449 10.2936 11.9824C10.7987 12.3199 11.3925 12.5 12 12.5ZM6.35715 20.8941V21.1812L6.60502 21.3259C8.24225 22.2819 10.1041 22.7857 12 22.7857C13.8959 22.7857 15.7578 22.2819 17.395 21.3259L17.6429 21.1812V20.8941V19.7143V19.7137C17.642 18.8996 17.3181 18.119 16.7424 17.5433C16.1667 16.9676 15.3862 16.6437 14.572 16.6429H14.5714H9.42858H9.42803C8.61385 16.6437 7.83328 16.9676 7.25758 17.5433C6.68187 18.119 6.35804 18.8996 6.35715 19.7137V19.7143V20.8941ZM18.3508 19.6583L18.3674 20.7526L19.1837 20.0236C20.8137 18.5682 21.9631 16.6521 22.4798 14.5289C22.9965 12.4057 22.8562 10.1757 22.0773 8.13406C21.2985 6.09243 19.9179 4.33552 18.1183 3.09597C16.3188 1.85642 14.1852 1.19271 12 1.19271C9.81485 1.19271 7.68124 1.85642 5.88169 3.09597C4.08214 4.33552 2.70153 6.09243 1.92268 8.13406C1.14382 10.1757 1.00346 12.4057 1.52019 14.5289C2.03691 16.6521 3.18634 18.5682 4.81627 20.0236L5.63265 20.7526L5.64923 19.6583C5.66429 18.665 6.06897 17.7175 6.77608 17.0198C7.48306 16.3223 8.43575 15.9304 9.42889 15.9286C9.42907 15.9286 9.42925 15.9286 9.42943 15.9286H14.5706C14.5708 15.9286 14.5709 15.9286 14.5711 15.9286C15.5643 15.9304 16.517 16.3223 17.2239 17.0198C17.931 17.7175 18.3357 18.665 18.3508 19.6583ZM9.89677 6.28086C10.5193 5.86488 11.2513 5.64286 12 5.64286C13.004 5.64286 13.9669 6.04171 14.6769 6.75167C15.3869 7.46163 15.7857 8.42454 15.7857 9.42857C15.7857 10.1773 15.5637 10.9092 15.1477 11.5318C14.7317 12.1544 14.1405 12.6396 13.4487 12.9261C12.757 13.2126 11.9958 13.2876 11.2614 13.1415C10.5271 12.9955 9.85254 12.6349 9.3231 12.1055C8.79366 11.576 8.4331 10.9015 8.28703 10.1671C8.14096 9.43277 8.21593 8.67159 8.50246 7.97984C8.78899 7.28809 9.27422 6.69684 9.89677 6.28086ZM5.61095 2.4381C7.50204 1.17451 9.72534 0.500054 11.9997 0.5C15.0487 0.503511 17.9718 1.71627 20.1278 3.87223C22.2838 6.02826 23.4966 8.95148 23.5 12.0006C23.4999 14.2749 22.8254 16.498 21.5619 18.3891C20.2983 20.2802 18.5022 21.7542 16.4009 22.6246C14.2995 23.495 11.9872 23.7228 9.75647 23.279C7.52568 22.8353 5.47658 21.74 3.86828 20.1317C2.25997 18.5234 1.1647 16.4743 0.720975 14.2435C0.277245 12.0128 0.504983 9.70049 1.37539 7.59914C2.2458 5.49779 3.71978 3.70174 5.61095 2.4381Z" fill="inherit" stroke="inherit"/>
</svg>
