<svg width="338" height="55" viewBox="0 0 338 55" fill="none" xmlns="http://www.w3.org/2000/svg">
<path d="M125.52 8.816V6.2H113.256V23H116.376V16.568H124.488V13.928H116.376V8.816H125.52ZM130.871 12.056V10.184H128.015V23H131.015V16.784C131.015 14.168 132.455 12.824 134.735 12.824C134.951 12.824 135.167 12.848 135.431 12.896V10.04C133.295 10.04 131.735 10.712 130.871 12.056ZM149.907 16.664C149.907 12.656 147.171 10.04 143.427 10.04C139.611 10.04 136.803 12.776 136.803 16.592C136.803 20.408 139.587 23.168 143.883 23.168C146.091 23.168 147.891 22.448 149.043 21.08L147.435 19.232C146.523 20.168 145.395 20.624 143.955 20.624C141.723 20.624 140.163 19.424 139.803 17.552H149.859C149.883 17.264 149.907 16.904 149.907 16.664ZM143.427 12.44C145.395 12.44 146.811 13.712 147.051 15.56H139.779C140.067 13.688 141.483 12.44 143.427 12.44ZM164.836 16.664C164.836 12.656 162.1 10.04 158.356 10.04C154.54 10.04 151.732 12.776 151.732 16.592C151.732 20.408 154.516 23.168 158.812 23.168C161.02 23.168 162.82 22.448 163.972 21.08L162.364 19.232C161.452 20.168 160.324 20.624 158.884 20.624C156.652 20.624 155.092 19.424 154.732 17.552H164.788C164.812 17.264 164.836 16.904 164.836 16.664ZM158.356 12.44C160.324 12.44 161.74 13.712 161.98 15.56H154.708C154.996 13.688 156.412 12.44 158.356 12.44ZM174.639 23H181.983C187.431 23 191.151 19.64 191.151 14.6C191.151 9.56 187.431 6.2 181.983 6.2H174.639V23ZM177.759 20.36V8.84H181.839C185.583 8.84 188.007 11.12 188.007 14.6C188.007 18.08 185.583 20.36 181.839 20.36H177.759ZM206.227 16.664C206.227 12.656 203.491 10.04 199.747 10.04C195.931 10.04 193.123 12.776 193.123 16.592C193.123 20.408 195.907 23.168 200.203 23.168C202.411 23.168 204.211 22.448 205.363 21.08L203.755 19.232C202.843 20.168 201.715 20.624 200.275 20.624C198.043 20.624 196.483 19.424 196.123 17.552H206.179C206.203 17.264 206.227 16.904 206.227 16.664ZM199.747 12.44C201.715 12.44 203.131 13.712 203.371 15.56H196.099C196.387 13.688 197.803 12.44 199.747 12.44ZM209.109 23H212.109V5.192H209.109V23ZM217.558 8.072C218.686 8.072 219.478 7.256 219.478 6.2C219.478 5.216 218.662 4.472 217.558 4.472C216.454 4.472 215.638 5.264 215.638 6.272C215.638 7.28 216.454 8.072 217.558 8.072ZM216.046 23H219.046V10.184H216.046V23ZM232.104 10.184L228 19.688L224.016 10.184H220.896L226.392 23H229.488L234.984 10.184H232.104ZM248.555 16.664C248.555 12.656 245.819 10.04 242.075 10.04C238.259 10.04 235.451 12.776 235.451 16.592C235.451 20.408 238.235 23.168 242.531 23.168C244.739 23.168 246.539 22.448 247.691 21.08L246.083 19.232C245.171 20.168 244.043 20.624 242.603 20.624C240.371 20.624 238.811 19.424 238.451 17.552H248.507C248.531 17.264 248.555 16.904 248.555 16.664ZM242.075 12.44C244.043 12.44 245.459 13.712 245.699 15.56H238.427C238.715 13.688 240.131 12.44 242.075 12.44ZM254.293 12.056V10.184H251.437V23H254.437V16.784C254.437 14.168 255.877 12.824 258.157 12.824C258.373 12.824 258.589 12.848 258.853 12.896V10.04C256.717 10.04 255.157 10.712 254.293 12.056ZM270.986 10.184L266.93 19.664L262.898 10.184H259.778L265.37 23.048L265.154 23.552C264.578 24.824 263.954 25.328 262.898 25.328C262.082 25.328 261.266 24.992 260.69 24.44L259.49 26.648C260.306 27.392 261.65 27.824 262.922 27.824C265.058 27.824 266.69 26.936 267.866 24.032L273.866 10.184H270.986Z" fill="#333333"/>
<path d="M112.824 51H120.28V49.976H114.008V39.8H112.824V51ZM125.321 51.08C127.785 51.08 129.593 49.288 129.593 46.792C129.593 44.296 127.785 42.52 125.321 42.52C122.857 42.52 121.033 44.296 121.033 46.792C121.033 49.288 122.857 51.08 125.321 51.08ZM125.321 50.072C123.529 50.072 122.185 48.76 122.185 46.792C122.185 44.824 123.529 43.512 125.321 43.512C127.113 43.512 128.441 44.824 128.441 46.792C128.441 48.76 127.113 50.072 125.321 50.072ZM133 44.232V42.584H131.912V51H133.048V46.712C133.048 44.728 134.12 43.608 135.88 43.608C135.96 43.608 136.056 43.624 136.152 43.624V42.52C134.6 42.52 133.528 43.112 133 44.232ZM145.475 46.792C145.475 44.264 143.763 42.52 141.395 42.52C139.027 42.52 137.283 44.296 137.283 46.792C137.283 49.288 139.075 51.08 141.699 51.08C143.027 51.08 144.195 50.6 144.947 49.704L144.307 48.968C143.667 49.704 142.755 50.072 141.731 50.072C139.891 50.072 138.547 48.904 138.419 47.144H145.459C145.459 47.016 145.475 46.888 145.475 46.792ZM141.395 43.496C143.043 43.496 144.243 44.648 144.387 46.296H138.419C138.563 44.648 139.763 43.496 141.395 43.496ZM158.283 42.52C156.763 42.52 155.563 43.208 154.955 44.296C154.443 43.112 153.355 42.52 151.963 42.52C150.555 42.52 149.467 43.112 148.875 44.12V42.584H147.787V51H148.923V46.584C148.923 44.664 150.027 43.544 151.739 43.544C153.275 43.544 154.171 44.456 154.171 46.232V51H155.307V46.584C155.307 44.664 156.395 43.544 158.123 43.544C159.643 43.544 160.539 44.456 160.539 46.232V51H161.675V46.12C161.675 43.704 160.331 42.52 158.283 42.52ZM169.519 40.744C169.999 40.744 170.351 40.376 170.351 39.912C170.351 39.48 169.983 39.128 169.519 39.128C169.055 39.128 168.687 39.496 168.687 39.928C168.687 40.376 169.055 40.744 169.519 40.744ZM168.943 51H170.079V42.584H168.943V51ZM177.576 42.52C176.184 42.52 175.016 43.128 174.328 44.248V42.584H173.24V54.104H174.376V49.416C175.08 50.504 176.232 51.08 177.576 51.08C179.976 51.08 181.768 49.352 181.768 46.792C181.768 44.248 179.976 42.52 177.576 42.52ZM177.496 50.072C175.704 50.072 174.36 48.76 174.36 46.792C174.36 44.84 175.704 43.512 177.496 43.512C179.272 43.512 180.632 44.84 180.632 46.792C180.632 48.76 179.272 50.072 177.496 50.072ZM186.34 51.08C188.532 51.08 189.812 50.136 189.812 48.68C189.812 45.448 184.356 47.16 184.356 44.888C184.356 44.088 185.028 43.496 186.548 43.496C187.412 43.496 188.292 43.704 189.028 44.216L189.524 43.304C188.82 42.824 187.636 42.52 186.548 42.52C184.404 42.52 183.22 43.544 183.22 44.92C183.22 48.248 188.676 46.52 188.676 48.712C188.676 49.544 188.02 50.088 186.42 50.088C185.236 50.088 184.1 49.672 183.428 49.144L182.916 50.04C183.604 50.632 184.948 51.08 186.34 51.08ZM198.36 42.584V47C198.36 48.92 197.256 50.056 195.496 50.056C193.896 50.056 192.968 49.144 192.968 47.352V42.584H191.832V47.464C191.832 49.88 193.24 51.08 195.384 51.08C196.728 51.08 197.816 50.488 198.408 49.464V51H199.496V42.584H198.36ZM213.174 42.52C211.654 42.52 210.454 43.208 209.846 44.296C209.334 43.112 208.246 42.52 206.854 42.52C205.446 42.52 204.358 43.112 203.766 44.12V42.584H202.678V51H203.814V46.584C203.814 44.664 204.918 43.544 206.63 43.544C208.166 43.544 209.062 44.456 209.062 46.232V51H210.198V46.584C210.198 44.664 211.286 43.544 213.014 43.544C214.534 43.544 215.43 44.456 215.43 46.232V51H216.566V46.12C216.566 43.704 215.222 42.52 213.174 42.52ZM230.378 39.128V44.184C229.674 43.096 228.522 42.52 227.178 42.52C224.778 42.52 222.986 44.248 222.986 46.792C222.986 49.336 224.778 51.08 227.178 51.08C228.57 51.08 229.738 50.472 230.426 49.336V51H231.514V39.128H230.378ZM227.274 50.072C225.482 50.072 224.138 48.76 224.138 46.792C224.138 44.824 225.482 43.512 227.274 43.512C229.05 43.512 230.394 44.824 230.394 46.792C230.394 48.76 229.05 50.072 227.274 50.072ZM238.118 51.08C240.582 51.08 242.39 49.288 242.39 46.792C242.39 44.296 240.582 42.52 238.118 42.52C235.654 42.52 233.83 44.296 233.83 46.792C233.83 49.288 235.654 51.08 238.118 51.08ZM238.118 50.072C236.326 50.072 234.982 48.76 234.982 46.792C234.982 44.824 236.326 43.512 238.118 43.512C239.91 43.512 241.238 44.824 241.238 46.792C241.238 48.76 239.91 50.072 238.118 50.072ZM244.709 51H245.845V39.128H244.709V51ZM252.446 51.08C254.91 51.08 256.718 49.288 256.718 46.792C256.718 44.296 254.91 42.52 252.446 42.52C249.982 42.52 248.158 44.296 248.158 46.792C248.158 49.288 249.982 51.08 252.446 51.08ZM252.446 50.072C250.654 50.072 249.31 48.76 249.31 46.792C249.31 44.824 250.654 43.512 252.446 43.512C254.238 43.512 255.566 44.824 255.566 46.792C255.566 48.76 254.238 50.072 252.446 50.072ZM260.125 44.232V42.584H259.037V51H260.173V46.712C260.173 44.728 261.245 43.608 263.005 43.608C263.085 43.608 263.181 43.624 263.277 43.624V42.52C261.725 42.52 260.653 43.112 260.125 44.232ZM271.903 51.08C274.095 51.08 275.375 50.136 275.375 48.68C275.375 45.448 269.919 47.16 269.919 44.888C269.919 44.088 270.591 43.496 272.111 43.496C272.975 43.496 273.855 43.704 274.591 44.216L275.087 43.304C274.383 42.824 273.199 42.52 272.111 42.52C269.967 42.52 268.783 43.544 268.783 44.92C268.783 48.248 274.239 46.52 274.239 48.712C274.239 49.544 273.583 50.088 271.983 50.088C270.799 50.088 269.663 49.672 268.991 49.144L268.479 50.04C269.167 50.632 270.511 51.08 271.903 51.08ZM278.051 40.744C278.531 40.744 278.883 40.376 278.883 39.912C278.883 39.48 278.515 39.128 278.051 39.128C277.587 39.128 277.219 39.496 277.219 39.928C277.219 40.376 277.587 40.744 278.051 40.744ZM277.475 51H278.611V42.584H277.475V51ZM285.804 49.672C285.484 49.96 285.02 50.104 284.556 50.104C283.612 50.104 283.1 49.56 283.1 48.568V43.544H285.66V42.584H283.1V40.744H281.964V42.584H280.46V43.544H281.964V48.632C281.964 50.184 282.844 51.08 284.428 51.08C285.084 51.08 285.756 50.888 286.204 50.488L285.804 49.672ZM295.403 42.52C294.075 42.52 292.827 42.936 291.979 43.656L292.491 44.504C293.179 43.896 294.203 43.512 295.291 43.512C296.859 43.512 297.675 44.296 297.675 45.736V46.248H295.003C292.587 46.248 291.755 47.336 291.755 48.632C291.755 50.088 292.923 51.08 294.827 51.08C296.219 51.08 297.211 50.552 297.723 49.688V51H298.811V45.784C298.811 43.608 297.579 42.52 295.403 42.52ZM295.003 50.184C293.659 50.184 292.875 49.576 292.875 48.6C292.875 47.736 293.403 47.096 295.035 47.096H297.675V48.472C297.227 49.576 296.283 50.184 295.003 50.184ZM312.393 42.52C310.873 42.52 309.673 43.208 309.065 44.296C308.553 43.112 307.465 42.52 306.073 42.52C304.665 42.52 303.577 43.112 302.985 44.12V42.584H301.897V51H303.033V46.584C303.033 44.664 304.137 43.544 305.849 43.544C307.385 43.544 308.281 44.456 308.281 46.232V51H309.417V46.584C309.417 44.664 310.505 43.544 312.233 43.544C313.753 43.544 314.649 44.456 314.649 46.232V51H315.785V46.12C315.785 43.704 314.441 42.52 312.393 42.52ZM326.241 46.792C326.241 44.264 324.529 42.52 322.161 42.52C319.793 42.52 318.049 44.296 318.049 46.792C318.049 49.288 319.841 51.08 322.465 51.08C323.793 51.08 324.961 50.6 325.713 49.704L325.073 48.968C324.433 49.704 323.521 50.072 322.497 50.072C320.657 50.072 319.312 48.904 319.185 47.144H326.225C326.225 47.016 326.241 46.888 326.241 46.792ZM322.161 43.496C323.809 43.496 325.009 44.648 325.153 46.296H319.185C319.329 44.648 320.529 43.496 322.161 43.496ZM332.585 49.672C332.265 49.96 331.801 50.104 331.337 50.104C330.393 50.104 329.881 49.56 329.881 48.568V43.544H332.441V42.584H329.881V40.744H328.745V42.584H327.241V43.544H328.745V48.632C328.745 50.184 329.625 51.08 331.209 51.08C331.865 51.08 332.537 50.888 332.985 50.488L332.585 49.672ZM335.321 51.08C335.785 51.08 336.185 50.696 336.185 50.2C336.185 49.704 335.785 49.336 335.321 49.336C334.857 49.336 334.473 49.704 334.473 50.2C334.473 50.696 334.857 51.08 335.321 51.08Z" fill="#333333"/>
<path d="M3.038 23.3621H2.22852C0.997617 23.3621 0 24.36 0 25.5906C0 26.8212 0.997617 27.8192 2.22852 27.8192H3.038C4.26828 27.8192 5.26657 26.8212 5.26657 25.5906C5.26657 24.36 4.26859 23.3621 3.038 23.3621Z" fill="#111111"/>
<path d="M21.5707 27.8192C22.8013 27.8192 23.7995 26.8212 23.7995 25.5906C23.7995 24.36 22.8013 23.3621 21.5707 23.3621H9.20313C7.97286 23.3621 6.97461 24.36 6.97461 25.5906C6.97461 26.8212 7.97286 27.8192 9.20313 27.8192H21.5707Z" fill="#111111"/>
<path d="M10.5781 19.5465H11.3784C12.6096 19.5465 13.6069 18.5485 13.6069 17.3183C13.6069 16.087 12.6096 15.0894 11.3784 15.0894H10.5781C9.34723 15.0894 8.34961 16.0874 8.34961 17.3183C8.34961 18.5485 9.34723 19.5465 10.5781 19.5465Z" fill="#111111"/>
<path d="M24.0084 15.0894H17.5443C16.3131 15.0894 15.3154 16.0874 15.3154 17.3183C15.3154 18.5489 16.3131 19.5465 17.5443 19.5465H24.0084C25.2393 19.5465 26.2369 18.5485 26.2369 17.3183C26.2369 16.087 25.2393 15.0894 24.0084 15.0894Z" fill="#111111"/>
<path d="M11.3883 31.6358H10.5781C9.34723 31.6358 8.34961 32.6337 8.34961 33.8646C8.34961 35.0952 9.34723 36.0928 10.5781 36.0928H11.3883C12.6192 36.0928 13.6168 35.0949 13.6168 33.8646C13.6168 32.6337 12.6192 31.6358 11.3883 31.6358Z" fill="#111111"/>
<path d="M24.0083 31.6358H17.5538C16.3229 31.6358 15.3252 32.6337 15.3252 33.8646C15.3252 35.0952 16.3229 36.0928 17.5538 36.0928H24.0083C25.2392 36.0928 26.2368 35.0949 26.2368 33.8646C26.2368 32.6337 25.2392 31.6358 24.0083 31.6358Z" fill="#111111"/>
<path d="M83.3369 27.5136L72.6408 15.8147C72.219 15.3526 71.6215 15.0895 70.9957 15.0895H58.3498V5.61916C58.3498 4.38825 57.3522 3.39062 56.1212 3.39062H15.5083C14.2774 3.39062 13.2798 4.38857 13.2798 5.61916C13.2798 6.84975 14.2774 7.84769 15.5083 7.84769H53.8924V43.3352H34.6721C33.7094 40.1014 30.7114 37.7362 27.1697 37.7362C23.6279 37.7362 20.6293 40.1014 19.6676 43.3352H15.5083C14.2774 43.3352 13.2798 44.3328 13.2798 45.5634C13.2798 46.7946 14.2774 47.792 15.5083 47.792H19.6676C20.6293 51.0251 23.6279 53.3906 27.1697 53.3906C30.7114 53.3906 33.7094 51.0251 34.6721 47.792H56.1209H61.4037C62.3664 51.0251 65.365 53.3906 68.9061 53.3906C72.4485 53.3906 75.4465 51.0251 76.4088 47.792H81.6919C82.9228 47.792 83.9204 46.7943 83.9204 45.5634V29.0172C83.9211 28.4613 83.7122 27.9245 83.3369 27.5136ZM27.1697 48.9342C25.3114 48.9342 23.7995 47.4223 23.7995 45.5637C23.7995 43.7054 25.3114 42.1933 27.1697 42.1933C29.028 42.1933 30.5398 43.7058 30.5398 45.5637C30.5401 47.4223 29.028 48.9342 27.1697 48.9342ZM68.9064 48.9342C67.0481 48.9342 65.5363 47.4223 65.5363 45.5637C65.5363 43.7054 67.0485 42.1933 68.9064 42.1933C70.7653 42.1933 72.2772 43.7058 72.2772 45.5637C72.2775 47.4223 70.7653 48.9342 68.9064 48.9342ZM76.4094 43.3355C75.4471 40.1017 72.4491 37.7365 68.9067 37.7365C65.3653 37.7365 62.367 40.1017 61.4043 43.3355H58.3501V19.5469H70.0143L76.6354 26.789H64.012C62.7817 26.789 61.7841 27.7869 61.7841 29.0175C61.7841 30.2487 62.7817 31.2461 64.012 31.2461H79.464V43.3352H76.4094V43.3355Z" fill="#111111"/>
</svg>
