<svg width="26" height="26" viewBox="0 0 26 26" fill="none" xmlns="http://www.w3.org/2000/svg">
<path d="M24.3762 13.2527C24.3762 12.3174 24.2988 11.6349 24.1312 10.9271H13.2334V15.1485H19.6302C19.5012 16.1975 18.8048 17.7774 17.2572 18.839L17.2355 18.9803L20.6812 21.5963L20.9199 21.6196C23.1123 19.6353 24.3762 16.7157 24.3762 13.2527" fill="#4285F4"/>
<path d="M13.2323 24.375C16.3662 24.375 18.9971 23.3638 20.9188 21.6197L17.2561 18.839C16.2759 19.5089 14.9604 19.9766 13.2323 19.9766C10.1629 19.9766 7.55778 17.9923 6.62912 15.2496L6.493 15.261L2.91014 17.9784L2.86328 18.106C4.77198 21.8218 8.69261 24.375 13.2323 24.375Z" fill="#34A853"/>
<path d="M6.62989 15.2497C6.38485 14.542 6.24304 13.7836 6.24304 13C6.24304 12.2163 6.38485 11.458 6.617 10.7503L6.61051 10.5995L2.98273 7.8385L2.86404 7.89383C2.07737 9.43579 1.62598 11.1674 1.62598 13C1.62598 14.8326 2.07737 16.5641 2.86404 18.1061L6.62989 15.2497" fill="#FBBC05"/>
<path d="M13.2324 6.0233C15.4119 6.0233 16.8821 6.94594 17.7204 7.71696L20.9962 4.5825C18.9844 2.74987 16.3663 1.625 13.2324 1.625C8.69265 1.625 4.77199 4.17804 2.86328 7.89384L6.61625 10.7503C7.5578 8.00763 10.1629 6.0233 13.2324 6.0233" fill="#EB4335"/>
</svg>
