<svg width="17" height="12" viewBox="0 0 17 12" fill="none" xmlns="http://www.w3.org/2000/svg">
<path d="M0.500488 2C0.500488 1.46957 0.711202 0.960859 1.08627 0.585786C1.46135 0.210714 1.97006 0 2.50049 0H14.5005C15.0309 0 15.5396 0.210714 15.9147 0.585786C16.2898 0.960859 16.5005 1.46957 16.5005 2V10C16.5005 10.5304 16.2898 11.0391 15.9147 11.4142C15.5396 11.7893 15.0309 12 14.5005 12H2.50049C1.97006 12 1.46135 11.7893 1.08627 11.4142C0.711202 11.0391 0.500488 10.5304 0.500488 10V2ZM2.50049 1C2.23527 1 1.98092 1.10536 1.79338 1.29289C1.60585 1.48043 1.50049 1.73478 1.50049 2V2.217L8.50049 6.417L15.5005 2.217V2C15.5005 1.73478 15.3951 1.48043 15.2076 1.29289C15.0201 1.10536 14.7657 1 14.5005 1H2.50049ZM15.5005 3.383L10.7425 6.238L15.5005 9.114V3.384V3.383ZM15.4665 10.261L9.77149 6.82L8.50049 7.583L7.22849 6.82L1.53449 10.26C1.59169 10.4724 1.71734 10.6601 1.89198 10.7938C2.06662 10.9276 2.2805 11.0001 2.50049 11H14.5005C14.7203 11.0001 14.9341 10.9278 15.1088 10.7942C15.2834 10.6607 15.4091 10.4732 15.4665 10.261V10.261ZM1.50049 9.114L6.25849 6.238L1.50049 3.383V9.113V9.114Z" fill="white"/>
</svg>
