<svg width="314" height="55" viewBox="0 0 314 55" fill="none" xmlns="http://www.w3.org/2000/svg">
<path d="M94.464 23.24C99.072 23.24 101.256 20.936 101.256 18.248C101.256 12.08 91.296 14.408 91.296 10.832C91.296 9.56 92.352 8.552 94.944 8.552C96.408 8.552 98.064 8.984 99.576 9.872L100.56 7.448C99.096 6.488 96.984 5.96 94.968 5.96C90.36 5.96 88.2 8.264 88.2 10.976C88.2 17.216 98.184 14.84 98.184 18.464C98.184 19.712 97.08 20.648 94.464 20.648C92.4 20.648 90.264 19.88 88.92 18.8L87.84 21.224C89.232 22.424 91.848 23.24 94.464 23.24ZM113.47 10.184V16.664C113.47 19.232 112.054 20.528 109.966 20.528C108.07 20.528 106.966 19.424 106.966 17.096V10.184H103.966V17.504C103.966 21.368 106.198 23.168 109.486 23.168C111.142 23.168 112.654 22.544 113.614 21.368V23H116.47V10.184H113.47ZM127.502 10.04C125.75 10.04 124.262 10.64 123.254 11.864V10.184H120.398V27.656H123.398V21.44C124.43 22.616 125.87 23.168 127.502 23.168C131.246 23.168 134.006 20.576 134.006 16.592C134.006 12.632 131.246 10.04 127.502 10.04ZM127.166 20.6C125.006 20.6 123.35 19.04 123.35 16.592C123.35 14.144 125.006 12.584 127.166 12.584C129.326 12.584 130.958 14.144 130.958 16.592C130.958 19.04 129.326 20.6 127.166 20.6ZM143.955 10.04C142.203 10.04 140.715 10.64 139.707 11.864V10.184H136.851V27.656H139.851V21.44C140.883 22.616 142.323 23.168 143.955 23.168C147.699 23.168 150.459 20.576 150.459 16.592C150.459 12.632 147.699 10.04 143.955 10.04ZM143.619 20.6C141.459 20.6 139.803 19.04 139.803 16.592C139.803 14.144 141.459 12.584 143.619 12.584C145.779 12.584 147.411 14.144 147.411 16.592C147.411 19.04 145.779 20.6 143.619 20.6ZM159.064 23.168C163.048 23.168 165.904 20.432 165.904 16.592C165.904 12.752 163.048 10.04 159.064 10.04C155.128 10.04 152.248 12.752 152.248 16.592C152.248 20.432 155.128 23.168 159.064 23.168ZM159.064 20.6C156.904 20.6 155.272 19.04 155.272 16.592C155.272 14.144 156.904 12.584 159.064 12.584C161.248 12.584 162.88 14.144 162.88 16.592C162.88 19.04 161.248 20.6 159.064 20.6ZM171.629 12.056V10.184H168.773V23H171.773V16.784C171.773 14.168 173.213 12.824 175.493 12.824C175.709 12.824 175.925 12.848 176.189 12.896V10.04C174.053 10.04 172.493 10.712 171.629 12.056ZM186.066 20.168C185.61 20.528 185.01 20.696 184.386 20.696C183.234 20.696 182.61 20.024 182.61 18.776V12.68H186.042V10.28H182.61V7.352H179.61V10.28H177.498V12.68H179.61V18.848C179.61 21.68 181.218 23.168 184.026 23.168C185.106 23.168 186.186 22.88 186.906 22.304L186.066 20.168ZM199.343 20.36L203.831 16.088C206.159 13.904 206.615 12.416 206.615 10.784C206.615 7.808 204.263 5.96 200.615 5.96C197.855 5.96 195.527 6.992 194.231 8.744L196.415 10.424C197.351 9.224 198.719 8.672 200.351 8.672C202.415 8.672 203.471 9.56 203.471 11.096C203.471 12.032 203.183 13.016 201.551 14.576L194.879 20.912V23H207.263V20.36H199.343ZM223.688 16.544H220.712V13.16H217.784V16.544H212.288L220.088 6.2H216.752L208.472 17.024V19.184H217.688V23H220.712V19.184H223.688V16.544ZM223.835 25.4H226.523L234.443 2.792H231.755L223.835 25.4ZM234.367 6.2V11.696H237.271V8.84H243.871L237.559 23H240.895L247.423 8.288V6.2H234.367Z" fill="#333333"/>
<path d="M88.824 51H96.28V49.976H90.008V39.8H88.824V51ZM101.321 51.08C103.785 51.08 105.593 49.288 105.593 46.792C105.593 44.296 103.785 42.52 101.321 42.52C98.8569 42.52 97.0329 44.296 97.0329 46.792C97.0329 49.288 98.8569 51.08 101.321 51.08ZM101.321 50.072C99.5289 50.072 98.1849 48.76 98.1849 46.792C98.1849 44.824 99.5289 43.512 101.321 43.512C103.113 43.512 104.441 44.824 104.441 46.792C104.441 48.76 103.113 50.072 101.321 50.072ZM109 44.232V42.584H107.912V51H109.048V46.712C109.048 44.728 110.12 43.608 111.88 43.608C111.96 43.608 112.056 43.624 112.152 43.624V42.52C110.6 42.52 109.528 43.112 109 44.232ZM121.475 46.792C121.475 44.264 119.763 42.52 117.395 42.52C115.027 42.52 113.283 44.296 113.283 46.792C113.283 49.288 115.075 51.08 117.699 51.08C119.027 51.08 120.195 50.6 120.947 49.704L120.307 48.968C119.667 49.704 118.755 50.072 117.731 50.072C115.891 50.072 114.547 48.904 114.419 47.144H121.459C121.459 47.016 121.475 46.888 121.475 46.792ZM117.395 43.496C119.043 43.496 120.243 44.648 120.387 46.296H114.419C114.563 44.648 115.763 43.496 117.395 43.496ZM134.283 42.52C132.763 42.52 131.563 43.208 130.955 44.296C130.443 43.112 129.355 42.52 127.963 42.52C126.555 42.52 125.467 43.112 124.875 44.12V42.584H123.787V51H124.923V46.584C124.923 44.664 126.027 43.544 127.739 43.544C129.275 43.544 130.171 44.456 130.171 46.232V51H131.307V46.584C131.307 44.664 132.395 43.544 134.123 43.544C135.643 43.544 136.539 44.456 136.539 46.232V51H137.675V46.12C137.675 43.704 136.331 42.52 134.283 42.52ZM145.519 40.744C145.999 40.744 146.351 40.376 146.351 39.912C146.351 39.48 145.983 39.128 145.519 39.128C145.055 39.128 144.687 39.496 144.687 39.928C144.687 40.376 145.055 40.744 145.519 40.744ZM144.943 51H146.079V42.584H144.943V51ZM153.576 42.52C152.184 42.52 151.016 43.128 150.328 44.248V42.584H149.24V54.104H150.376V49.416C151.08 50.504 152.232 51.08 153.576 51.08C155.976 51.08 157.768 49.352 157.768 46.792C157.768 44.248 155.976 42.52 153.576 42.52ZM153.496 50.072C151.704 50.072 150.36 48.76 150.36 46.792C150.36 44.84 151.704 43.512 153.496 43.512C155.272 43.512 156.632 44.84 156.632 46.792C156.632 48.76 155.272 50.072 153.496 50.072ZM162.34 51.08C164.532 51.08 165.812 50.136 165.812 48.68C165.812 45.448 160.356 47.16 160.356 44.888C160.356 44.088 161.028 43.496 162.548 43.496C163.412 43.496 164.292 43.704 165.028 44.216L165.524 43.304C164.82 42.824 163.636 42.52 162.548 42.52C160.404 42.52 159.22 43.544 159.22 44.92C159.22 48.248 164.676 46.52 164.676 48.712C164.676 49.544 164.02 50.088 162.42 50.088C161.236 50.088 160.1 49.672 159.428 49.144L158.916 50.04C159.604 50.632 160.948 51.08 162.34 51.08ZM174.36 42.584V47C174.36 48.92 173.256 50.056 171.496 50.056C169.896 50.056 168.968 49.144 168.968 47.352V42.584H167.832V47.464C167.832 49.88 169.24 51.08 171.384 51.08C172.728 51.08 173.816 50.488 174.408 49.464V51H175.496V42.584H174.36ZM189.174 42.52C187.654 42.52 186.454 43.208 185.846 44.296C185.334 43.112 184.246 42.52 182.854 42.52C181.446 42.52 180.358 43.112 179.766 44.12V42.584H178.678V51H179.814V46.584C179.814 44.664 180.918 43.544 182.63 43.544C184.166 43.544 185.062 44.456 185.062 46.232V51H186.198V46.584C186.198 44.664 187.286 43.544 189.014 43.544C190.534 43.544 191.43 44.456 191.43 46.232V51H192.566V46.12C192.566 43.704 191.222 42.52 189.174 42.52ZM206.378 39.128V44.184C205.674 43.096 204.522 42.52 203.178 42.52C200.778 42.52 198.986 44.248 198.986 46.792C198.986 49.336 200.778 51.08 203.178 51.08C204.57 51.08 205.738 50.472 206.426 49.336V51H207.514V39.128H206.378ZM203.274 50.072C201.482 50.072 200.138 48.76 200.138 46.792C200.138 44.824 201.482 43.512 203.274 43.512C205.05 43.512 206.394 44.824 206.394 46.792C206.394 48.76 205.05 50.072 203.274 50.072ZM214.118 51.08C216.582 51.08 218.39 49.288 218.39 46.792C218.39 44.296 216.582 42.52 214.118 42.52C211.654 42.52 209.83 44.296 209.83 46.792C209.83 49.288 211.654 51.08 214.118 51.08ZM214.118 50.072C212.326 50.072 210.982 48.76 210.982 46.792C210.982 44.824 212.326 43.512 214.118 43.512C215.91 43.512 217.238 44.824 217.238 46.792C217.238 48.76 215.91 50.072 214.118 50.072ZM220.709 51H221.845V39.128H220.709V51ZM228.446 51.08C230.91 51.08 232.718 49.288 232.718 46.792C232.718 44.296 230.91 42.52 228.446 42.52C225.982 42.52 224.158 44.296 224.158 46.792C224.158 49.288 225.982 51.08 228.446 51.08ZM228.446 50.072C226.654 50.072 225.31 48.76 225.31 46.792C225.31 44.824 226.654 43.512 228.446 43.512C230.238 43.512 231.566 44.824 231.566 46.792C231.566 48.76 230.238 50.072 228.446 50.072ZM236.125 44.232V42.584H235.037V51H236.173V46.712C236.173 44.728 237.245 43.608 239.005 43.608C239.085 43.608 239.181 43.624 239.277 43.624V42.52C237.725 42.52 236.653 43.112 236.125 44.232ZM247.903 51.08C250.095 51.08 251.375 50.136 251.375 48.68C251.375 45.448 245.919 47.16 245.919 44.888C245.919 44.088 246.591 43.496 248.111 43.496C248.975 43.496 249.855 43.704 250.591 44.216L251.087 43.304C250.383 42.824 249.199 42.52 248.111 42.52C245.967 42.52 244.783 43.544 244.783 44.92C244.783 48.248 250.239 46.52 250.239 48.712C250.239 49.544 249.583 50.088 247.983 50.088C246.799 50.088 245.663 49.672 244.991 49.144L244.479 50.04C245.167 50.632 246.511 51.08 247.903 51.08ZM254.051 40.744C254.531 40.744 254.883 40.376 254.883 39.912C254.883 39.48 254.515 39.128 254.051 39.128C253.587 39.128 253.219 39.496 253.219 39.928C253.219 40.376 253.587 40.744 254.051 40.744ZM253.475 51H254.611V42.584H253.475V51ZM261.804 49.672C261.484 49.96 261.02 50.104 260.556 50.104C259.612 50.104 259.1 49.56 259.1 48.568V43.544H261.66V42.584H259.1V40.744H257.964V42.584H256.46V43.544H257.964V48.632C257.964 50.184 258.844 51.08 260.428 51.08C261.084 51.08 261.756 50.888 262.204 50.488L261.804 49.672ZM271.403 42.52C270.075 42.52 268.827 42.936 267.979 43.656L268.491 44.504C269.179 43.896 270.203 43.512 271.291 43.512C272.859 43.512 273.675 44.296 273.675 45.736V46.248H271.003C268.587 46.248 267.755 47.336 267.755 48.632C267.755 50.088 268.923 51.08 270.827 51.08C272.219 51.08 273.211 50.552 273.723 49.688V51H274.811V45.784C274.811 43.608 273.579 42.52 271.403 42.52ZM271.003 50.184C269.659 50.184 268.875 49.576 268.875 48.6C268.875 47.736 269.403 47.096 271.035 47.096H273.675V48.472C273.227 49.576 272.283 50.184 271.003 50.184ZM288.393 42.52C286.873 42.52 285.673 43.208 285.065 44.296C284.553 43.112 283.465 42.52 282.073 42.52C280.665 42.52 279.577 43.112 278.985 44.12V42.584H277.897V51H279.033V46.584C279.033 44.664 280.137 43.544 281.849 43.544C283.385 43.544 284.281 44.456 284.281 46.232V51H285.417V46.584C285.417 44.664 286.505 43.544 288.233 43.544C289.753 43.544 290.649 44.456 290.649 46.232V51H291.785V46.12C291.785 43.704 290.441 42.52 288.393 42.52ZM302.241 46.792C302.241 44.264 300.529 42.52 298.161 42.52C295.793 42.52 294.049 44.296 294.049 46.792C294.049 49.288 295.841 51.08 298.465 51.08C299.793 51.08 300.961 50.6 301.713 49.704L301.073 48.968C300.433 49.704 299.521 50.072 298.497 50.072C296.657 50.072 295.312 48.904 295.185 47.144H302.225C302.225 47.016 302.241 46.888 302.241 46.792ZM298.161 43.496C299.809 43.496 301.009 44.648 301.153 46.296H295.185C295.329 44.648 296.529 43.496 298.161 43.496ZM308.585 49.672C308.265 49.96 307.801 50.104 307.337 50.104C306.393 50.104 305.881 49.56 305.881 48.568V43.544H308.441V42.584H305.881V40.744H304.745V42.584H303.241V43.544H304.745V48.632C304.745 50.184 305.625 51.08 307.209 51.08C307.865 51.08 308.537 50.888 308.985 50.488L308.585 49.672ZM311.321 51.08C311.785 51.08 312.185 50.696 312.185 50.2C312.185 49.704 311.785 49.336 311.321 49.336C310.857 49.336 310.473 49.704 310.473 50.2C310.473 50.696 310.857 51.08 311.321 51.08Z" fill="#333333"/>
<path d="M17.2233 36.6246H27.413C28.2923 36.6246 29.005 35.9119 29.005 35.0331C29.005 34.1538 28.2921 33.4407 27.413 33.4407H21.0663L27.0219 27.4854C28.3005 26.2067 29.005 24.5067 29.005 22.6981C29.005 20.8898 28.3005 19.1898 27.0219 17.9112C25.7434 16.6323 24.0432 15.9283 22.2349 15.9283C20.4263 15.9283 18.7263 16.6325 17.4479 17.9112C16.826 18.5326 16.826 19.5408 17.4479 20.1626C18.0697 20.784 19.0775 20.784 19.6994 20.1622C20.3764 19.485 21.2772 19.1122 22.2349 19.1122C23.1927 19.1122 24.0934 19.485 24.7706 20.1626C25.4481 20.8394 25.8209 21.7401 25.8209 22.6981C25.8209 23.656 25.4481 24.5567 24.7706 25.2339L16.0972 33.9075C15.6418 34.3624 15.5058 35.0474 15.7519 35.6424C15.9987 36.237 16.5792 36.6246 17.2233 36.6246Z" fill="#111111"/>
<path d="M42.7248 33.4414H41.372V30.2436C41.372 29.3648 40.6593 28.6517 39.78 28.6517C38.9007 28.6517 38.1883 29.3648 38.1883 30.2436V33.4414H34.3759L41.2323 18.1727C41.5924 17.3708 41.2341 16.4284 40.432 16.0683C39.6299 15.7083 38.6877 16.0663 38.3277 16.8682L30.4635 34.3813C30.2423 34.8737 30.2857 35.4449 30.579 35.8985C30.8726 36.3517 31.3755 36.6251 31.9156 36.6251H38.188V39.8233C38.188 40.7021 38.9005 41.4154 39.7798 41.4154C40.6593 41.4154 41.3717 40.7021 41.3717 39.8233V36.6251H42.7246C43.6039 36.6251 44.3168 35.9124 44.3168 35.0335C44.317 34.1542 43.6039 33.4414 42.7248 33.4414Z" fill="#333333"/>
<path d="M59.7354 27.8765C59.4511 27.384 58.9253 27.0803 58.3568 27.0803H54.5938C54.2146 21.0898 51.7023 15.5095 47.4195 11.2272C42.7596 6.56738 36.5641 4.00122 29.9743 4.00122C29.095 4.00122 28.3823 4.71387 28.3823 5.59295C28.3823 6.47247 29.0952 7.18489 29.9743 7.18489C41.2871 7.18489 50.5855 15.9727 51.4028 27.0805H47.751C47.182 27.0805 46.6567 27.3843 46.3724 27.8767C46.0877 28.3694 46.0877 28.9762 46.3724 29.4689L51.675 38.6537C51.9597 39.1464 52.4851 39.4495 53.0536 39.4495C53.6225 39.4495 54.1481 39.1464 54.4323 38.6537L59.7351 29.4689C60.0194 28.976 60.0194 28.3691 59.7354 27.8765ZM53.0536 34.6732L50.5083 30.2642H55.5995L53.0536 34.6732Z" fill="#111111"/>
<path d="M25.007 7.18437C25.4256 7.18437 25.8363 7.01366 26.1326 6.71739C26.4287 6.42134 26.5992 6.01062 26.5992 5.5922C26.5992 5.17241 26.4289 4.76262 26.1326 4.46657C25.8366 4.16938 25.4256 4 25.007 4C24.5874 4 24.1776 4.16938 23.8809 4.46657C23.5848 4.76262 23.415 5.17332 23.415 5.5922C23.415 6.01062 23.5848 6.42134 23.8809 6.71739C24.1776 7.01366 24.5874 7.18437 25.007 7.18437Z" fill="#111111"/>
<path d="M20.2313 7.18437C20.6498 7.18437 21.0607 7.01366 21.3567 6.71739C21.6539 6.42134 21.8233 6.01062 21.8233 5.5922C21.8233 5.17241 21.6539 4.76262 21.3567 4.46657C21.0607 4.16938 20.6498 4 20.2313 4C19.8127 4 19.402 4.16938 19.1057 4.46657C18.8085 4.76262 18.6392 5.17241 18.6392 5.5922C18.6392 6.01062 18.8085 6.42134 19.1057 6.71739C19.4018 7.01366 19.8127 7.18437 20.2313 7.18437Z" fill="#111111"/>
<path d="M29.9745 50.1589C24.2347 50.1589 18.839 47.9237 14.7803 43.8655C11.0994 40.1846 8.91854 35.4031 8.54485 30.2633H12.1976C12.198 30.2633 12.1985 30.2633 12.199 30.2633C13.0783 30.2633 13.7909 29.5506 13.7909 28.6713C13.7909 28.3562 13.6992 28.062 13.5409 27.815L8.2731 18.6907C7.98908 18.1983 7.46326 17.895 6.89455 17.895C6.32583 17.895 5.80024 18.1983 5.516 18.6907L0.213184 27.8756C-0.0710614 28.3682 -0.0710614 28.9751 0.213184 29.4677C0.49743 29.9604 1.02302 30.2635 1.59173 30.2635H5.35458C5.73417 36.2547 8.2463 41.8342 12.5288 46.1168C17.1887 50.7771 23.3842 53.343 29.9743 53.343C30.8536 53.343 31.566 52.6304 31.566 51.7508C31.5662 50.872 30.8538 50.1589 29.9745 50.1589ZM6.89477 22.6706L9.44027 27.0794H4.34928L6.89477 22.6706Z" fill="#111111"/>
<path d="M34.9416 50.1585C34.5229 50.1585 34.1122 50.3292 33.8159 50.6248C33.5199 50.9211 33.3496 51.3318 33.3496 51.7504C33.3496 52.17 33.5199 52.58 33.8159 52.8763C34.112 53.173 34.5229 53.3426 34.9416 53.3426C35.3611 53.3426 35.7709 53.173 36.0679 52.8763C36.3639 52.58 36.5333 52.1695 36.5333 51.7504C36.5333 51.3318 36.3639 50.9211 36.0679 50.6248C35.7709 50.3292 35.3611 50.1585 34.9416 50.1585Z" fill="#111111"/>
<path d="M39.7174 50.1585C39.2979 50.1585 38.8879 50.3292 38.5918 50.6248C38.2949 50.9211 38.1255 51.3318 38.1255 51.7504C38.1255 52.1695 38.2951 52.58 38.5918 52.8763C38.8879 53.173 39.2979 53.3426 39.7174 53.3426C40.1361 53.3426 40.547 53.173 40.8428 52.8763C41.1389 52.58 41.3096 52.1695 41.3096 51.7504C41.3096 51.3318 41.1391 50.9211 40.8428 50.6248C40.547 50.3292 40.1359 50.1585 39.7174 50.1585Z" fill="#111111"/>
</svg>
